# xmcd
#
# Track frame offsets: 
#        150
#        19807
#        39017
#        60225
#        85900
#        114545
#        133277
#        154747
#        180530
#        201992
#        224360
#
# Disc length: 3277 seconds
#
# Revision: 0
# Processed by: cddbd v1.4PL0 Copyright (c) Steve Scherf et al.
# Submitted via: ExactAudioCopy v0.90b4
#
DISCID=910ccb0b
DTITLE=Oiling Boiling Rhythm'n Blues Band - Oiling Boiling
DYEAR=1999
DGENRE=Blues
TTITLE0=Po' Boy
TTITLE1=Barefootin'
TTITLE2=Caldonia
TTITLE3=Better git in in your soul
TTITLE4=Right place wrong time
TTITLE5=Drum boogie
TTITLE6=Let the good times roll
TTITLE7=Stormy Monday
TTITLE8=Mama he treats your daughter mean
TTITLE9=Georgia on my mind
TTITLE10=You can have my husband
EXTD=
EXTT0=
EXTT1=
EXTT2=
EXTT3=
EXTT4=
EXTT5=
EXTT6=
EXTT7=
EXTT8=
EXTT9=
EXTT10=
PLAYORDER=
